<?xml version="1.0" encoding="UTF-8" standalone="no"?>
<!DOCTYPE svg PUBLIC "-//W3C//DTD SVG 1.1//EN"
 "http://www.w3.org/Graphics/SVG/1.1/DTD/svg11.dtd">
<!-- Generated by graphviz version 6.0.2 (20221011.1828)
 -->
<!-- Title: G Pages: 1 -->
<svg width="687pt" height="155pt"
 viewBox="0.00 0.00 687.00 155.00" xmlns="http://www.w3.org/2000/svg" xmlns:xlink="http://www.w3.org/1999/xlink">
<g id="graph0" class="graph" transform="scale(1 1) rotate(0) translate(4 151)">
<title>G</title>
<polygon fill="white" stroke="none" points="-4,4 -4,-151 683,-151 683,4 -4,4"/>
<!-- Foundation&#45;2020 -->
<g id="node1" class="node">
<title>Foundation&#45;2020</title>
<polygon fill="none" stroke="black" points="0,-110.5 0,-146.5 110,-146.5 110,-110.5 0,-110.5"/>
<text text-anchor="middle" x="55" y="-124.8" font-family="Times,serif" font-size="14.00">Foundation&#45;2020</text>
</g>
<!-- Foundation&#45;2021 -->
<g id="node2" class="node">
<title>Foundation&#45;2021</title>
<polygon fill="none" stroke="black" points="146,-110.5 146,-146.5 256,-146.5 256,-110.5 146,-110.5"/>
<text text-anchor="middle" x="201" y="-124.8" font-family="Times,serif" font-size="14.00">Foundation&#45;2021</text>
</g>
<!-- Foundation&#45;2020&#45;&gt;Foundation&#45;2021 -->
<g id="edge1" class="edge">
<title>Foundation&#45;2020&#45;&gt;Foundation&#45;2021</title>
<path fill="none" stroke="black" d="M110.03,-128.5C118.31,-128.5 126.94,-128.5 135.42,-128.5"/>
<polygon fill="black" stroke="black" points="135.67,-132 145.67,-128.5 135.67,-125 135.67,-132"/>
</g>
<!-- Meridian 2020 -->
<g id="node6" class="node">
<title>Meridian 2020</title>
<polygon fill="none" stroke="black" points="152,-55.5 152,-91.5 250,-91.5 250,-55.5 152,-55.5"/>
<text text-anchor="middle" x="201" y="-69.8" font-family="Times,serif" font-size="14.00">Meridian 2020</text>
</g>
<!-- Foundation&#45;2020&#45;&gt;Meridian 2020 -->
<g id="edge5" class="edge">
<title>Foundation&#45;2020&#45;&gt;Meridian 2020</title>
<path fill="none" stroke="black" d="M103.15,-110.49C115.96,-105.6 129.96,-100.25 143.23,-95.18"/>
<polygon fill="black" stroke="black" points="144.65,-98.39 152.74,-91.55 142.15,-91.85 144.65,-98.39"/>
</g>
<!-- PoweredBy 2020 -->
<g id="node10" class="node">
<title>PoweredBy 2020</title>
<polygon fill="none" stroke="black" points="146,-0.5 146,-36.5 256,-36.5 256,-0.5 146,-0.5"/>
<text text-anchor="middle" x="201" y="-14.8" font-family="Times,serif" font-size="14.00">PoweredBy 2020</text>
</g>
<!-- Foundation&#45;2020&#45;&gt;PoweredBy 2020 -->
<g id="edge9" class="edge">
<title>Foundation&#45;2020&#45;&gt;PoweredBy 2020</title>
<path fill="none" stroke="black" d="M79.78,-110.34C103.85,-91.94 141.24,-63.38 167.93,-43"/>
<polygon fill="black" stroke="black" points="170.36,-45.54 176.19,-36.69 166.11,-39.98 170.36,-45.54"/>
</g>
<!-- Foundation&#45;2022 -->
<g id="node3" class="node">
<title>Foundation&#45;2022</title>
<polygon fill="none" stroke="black" points="292,-110.5 292,-146.5 402,-146.5 402,-110.5 292,-110.5"/>
<text text-anchor="middle" x="347" y="-124.8" font-family="Times,serif" font-size="14.00">Foundation&#45;2022</text>
</g>
<!-- Foundation&#45;2021&#45;&gt;Foundation&#45;2022 -->
<g id="edge2" class="edge">
<title>Foundation&#45;2021&#45;&gt;Foundation&#45;2022</title>
<path fill="none" stroke="black" d="M256.03,-128.5C264.31,-128.5 272.94,-128.5 281.42,-128.5"/>
<polygon fill="black" stroke="black" points="281.67,-132 291.67,-128.5 281.67,-125 281.67,-132"/>
</g>
<!-- Meridian 2021 -->
<g id="node7" class="node">
<title>Meridian 2021</title>
<polygon fill="none" stroke="black" points="298,-55.5 298,-91.5 396,-91.5 396,-55.5 298,-55.5"/>
<text text-anchor="middle" x="347" y="-69.8" font-family="Times,serif" font-size="14.00">Meridian 2021</text>
</g>
<!-- Foundation&#45;2021&#45;&gt;Meridian 2021 -->
<g id="edge6" class="edge">
<title>Foundation&#45;2021&#45;&gt;Meridian 2021</title>
<path fill="none" stroke="black" d="M249.15,-110.49C261.96,-105.6 275.96,-100.25 289.23,-95.18"/>
<polygon fill="black" stroke="black" points="290.65,-98.39 298.74,-91.55 288.15,-91.85 290.65,-98.39"/>
</g>
<!-- PoweredBy 2021 -->
<g id="node11" class="node">
<title>PoweredBy 2021</title>
<polygon fill="none" stroke="black" points="292,-0.5 292,-36.5 402,-36.5 402,-0.5 292,-0.5"/>
<text text-anchor="middle" x="347" y="-14.8" font-family="Times,serif" font-size="14.00">PoweredBy 2021</text>
</g>
<!-- Foundation&#45;2021&#45;&gt;PoweredBy 2021 -->
<g id="edge10" class="edge">
<title>Foundation&#45;2021&#45;&gt;PoweredBy 2021</title>
<path fill="none" stroke="black" d="M225.78,-110.34C249.85,-91.94 287.24,-63.38 313.93,-43"/>
<polygon fill="black" stroke="black" points="316.36,-45.54 322.19,-36.69 312.11,-39.98 316.36,-45.54"/>
</g>
<!-- Foundation&#45;2023 -->
<g id="node4" class="node">
<title>Foundation&#45;2023</title>
<polygon fill="none" stroke="black" points="438,-110.5 438,-146.5 548,-146.5 548,-110.5 438,-110.5"/>
<text text-anchor="middle" x="493" y="-124.8" font-family="Times,serif" font-size="14.00">Foundation&#45;2023</text>
</g>
<!-- Foundation&#45;2022&#45;&gt;Foundation&#45;2023 -->
<g id="edge3" class="edge">
<title>Foundation&#45;2022&#45;&gt;Foundation&#45;2023</title>
<path fill="none" stroke="black" d="M402.03,-128.5C410.31,-128.5 418.94,-128.5 427.42,-128.5"/>
<polygon fill="black" stroke="black" points="427.67,-132 437.67,-128.5 427.67,-125 427.67,-132"/>
</g>
<!-- Meridian 2022 -->
<g id="node8" class="node">
<title>Meridian 2022</title>
<polygon fill="none" stroke="black" points="444,-55.5 444,-91.5 542,-91.5 542,-55.5 444,-55.5"/>
<text text-anchor="middle" x="493" y="-69.8" font-family="Times,serif" font-size="14.00">Meridian 2022</text>
</g>
<!-- Foundation&#45;2022&#45;&gt;Meridian 2022 -->
<g id="edge7" class="edge">
<title>Foundation&#45;2022&#45;&gt;Meridian 2022</title>
<path fill="none" stroke="black" d="M395.15,-110.49C407.96,-105.6 421.96,-100.25 435.23,-95.18"/>
<polygon fill="black" stroke="black" points="436.65,-98.39 444.74,-91.55 434.15,-91.85 436.65,-98.39"/>
</g>
<!-- PoweredBy 2022 -->
<g id="node12" class="node">
<title>PoweredBy 2022</title>
<polygon fill="none" stroke="black" points="438,-0.5 438,-36.5 548,-36.5 548,-0.5 438,-0.5"/>
<text text-anchor="middle" x="493" y="-14.8" font-family="Times,serif" font-size="14.00">PoweredBy 2022</text>
</g>
<!-- Foundation&#45;2022&#45;&gt;PoweredBy 2022 -->
<g id="edge11" class="edge">
<title>Foundation&#45;2022&#45;&gt;PoweredBy 2022</title>
<path fill="none" stroke="black" d="M371.78,-110.34C395.85,-91.94 433.24,-63.38 459.93,-43"/>
<polygon fill="black" stroke="black" points="462.36,-45.54 468.19,-36.69 458.11,-39.98 462.36,-45.54"/>
</g>
<!-- release&#45;31.x -->
<g id="node5" class="node">
<title>release&#45;31.x</title>
<polygon fill="none" stroke="black" points="590,-110.5 590,-146.5 673,-146.5 673,-110.5 590,-110.5"/>
<text text-anchor="middle" x="631.5" y="-124.8" font-family="Times,serif" font-size="14.00">release&#45;31.x</text>
</g>
<!-- Foundation&#45;2023&#45;&gt;release&#45;31.x -->
<g id="edge4" class="edge">
<title>Foundation&#45;2023&#45;&gt;release&#45;31.x</title>
<path fill="none" stroke="black" d="M548.34,-128.5C558.71,-128.5 569.53,-128.5 579.78,-128.5"/>
<polygon fill="black" stroke="black" points="579.81,-132 589.81,-128.5 579.81,-125 579.81,-132"/>
</g>
<!-- Meridian ... -->
<g id="node9" class="node">
<title>Meridian ...</title>
<polygon fill="none" stroke="black" points="590.5,-55.5 590.5,-91.5 672.5,-91.5 672.5,-55.5 590.5,-55.5"/>
<text text-anchor="middle" x="631.5" y="-69.8" font-family="Times,serif" font-size="14.00">Meridian ...</text>
</g>
<!-- Foundation&#45;2023&#45;&gt;Meridian ... -->
<g id="edge8" class="edge">
<title>Foundation&#45;2023&#45;&gt;Meridian ...</title>
<path fill="none" stroke="black" d="M538.7,-110.49C552.21,-105.04 567.14,-99.03 580.96,-93.46"/>
<polygon fill="black" stroke="black" points="582.35,-96.68 590.31,-89.69 579.73,-90.18 582.35,-96.68"/>
</g>
<!-- PoweredBy ... -->
<g id="node13" class="node">
<title>PoweredBy ...</title>
<polygon fill="none" stroke="black" points="584,-0.5 584,-36.5 679,-36.5 679,-0.5 584,-0.5"/>
<text text-anchor="middle" x="631.5" y="-14.8" font-family="Times,serif" font-size="14.00">PoweredBy ...</text>
</g>
<!-- Foundation&#45;2023&#45;&gt;PoweredBy ... -->
<g id="edge12" class="edge">
<title>Foundation&#45;2023&#45;&gt;PoweredBy ...</title>
<path fill="none" stroke="black" d="M516.54,-110.34C539.36,-91.94 574.8,-63.38 600.1,-43"/>
<polygon fill="black" stroke="black" points="602.34,-45.69 607.93,-36.69 597.94,-40.24 602.34,-45.69"/>
</g>
</g>
</svg>
